<?xml version="1.0" encoding="UTF-8"?>
<svg id="Layer_2" data-name="Layer 2" xmlns="http://www.w3.org/2000/svg" viewBox="0 0 504.48 491.44">
  <defs>
    <style>
      .cls-1 {
        fill: #fff;
      }
    </style>
  </defs>
  <g id="Layer_1-2" data-name="Layer 1">
    <g>
      <path class="cls-1" d="M188.25,303.91c-2.79,2.79-8.24,23.01-8.16,27.13.1,5.14,4.38,9.62,9.38,10.39l257.47.03c29.39,2.53,29.37,40.64.95,43.94l-257.53.05c-26.81-1.37-50.54-22.53-53.23-49.57-2.02-20.26,10.21-39.39,8.74-59.64-22.32-74.99-49.17-148.7-73.23-223.2-3.4-6.83-8.8-8.45-15.94-9.01-11.49-.9-36.13,2.51-45.14-1.76C-7.14,33.41-2.24,3.08,19.7,1.12c16.96-1.52,49.94-1.46,66.95,0,8.86.76,14.5,4.67,18.44,12.5,9.41,18.72,12.68,47.88,22.4,65.43,2.07,3.73,4.89,5.89,9.1,6.87l346.29.03c15.36,1.33,24.11,12.74,20.97,28.03l-57.65,172.9c-3.07,6.62-9.61,12.44-17.21,12.73l-228.63-.08c-3.9.34-9.29,1.56-12.1,4.37Z"/>
      <path class="cls-1" d="M166.75,405.67c33.29-2.85,56.83,31.25,42.65,61.61-14.09,30.15-57.74,32.67-75.18,4.27s.69-63.14,32.53-65.87Z"/>
      <path class="cls-1" d="M422.25,405.67c33.29-2.85,56.83,31.25,42.65,61.61-14.09,30.15-57.74,32.67-75.18,4.27s.69-63.14,32.53-65.87Z"/>
    </g>
  </g>
</svg>